# xmcd CD database file
#
# Track frame offsets:
#	150
#	23347
#	40590
#	61947
#	79217
#	95053
#	112745
#	134932
#	153309
#	180026
#	210493
#	226668
#	244886
#	266875
#	285522
#	303251
#
# Disc length: 4347 seconds
#
# Revision: 0
# Processed by: cddbd v1.5.1PL2 Copyright (c) Steve Scherf et al.
# Submitted via: Feurio! 1.68 - http://www.feurio.com
#
DISCID=c710f910
DTITLE=Elton John - Love Dongs
DYEAR=1900
DGENRE=
TTITLE0=Sacrifice
TTITLE1=Candle In The Wind
TTITLE2=I Guess That's Why They Call It The Blues
TTITLE3=Sorry Seems To Be The Hardest Word
TTITLE4=Blue Eyes
TTITLE5=Daniel
TTITLE6=Nikita
TTITLE7=Your Song
TTITLE8=The One
TTITLE9=Someone Saved My Life Tonight
TTITLE10=True Love
TTITLE11=Can You Feel The Love Tonight
TTITLE12=Circle Of Life
TTITLE13=Blessed
TTITLE14=Please
TTITLE15=Song For Guy
EXTD=
EXTT0=
EXTT1=
EXTT2=
EXTT3=
EXTT4=
EXTT5=
EXTT6=
EXTT7=
EXTT8=
EXTT9=
EXTT10=
EXTT11=
EXTT12=
EXTT13=
EXTT14=
EXTT15=
PLAYORDER=
